<?xml version="1.0" standalone="no"?>
<!DOCTYPE svg PUBLIC "-//W3C//DTD SVG 20010904//EN"
 "http://www.w3.org/TR/2001/REC-SVG-20010904/DTD/svg10.dtd">
<svg version="1.0" xmlns="http://www.w3.org/2000/svg"
 width="800.000000pt" height="800.000000pt" viewBox="0 0 800.000000 800.000000"
 preserveAspectRatio="xMidYMid meet">
<metadata>
Created by potrace 1.14, written by Peter Selinger 2001-2017
</metadata>
<g transform="translate(0.000000,800.000000) scale(0.100000,-0.100000)"
fill="#000000" stroke="none">
<path d="M1876 7978 c9 -32 12 -34 34 -20 11 7 33 12 49 12 35 0 61 9 61 21 0
5 -34 9 -76 9 -74 0 -75 -1 -68 -22z"/>
<path d="M6364 7868 c17 -476 18 -492 39 -511 26 -23 37 -8 37 53 0 25 7 72
16 105 9 33 17 86 19 118 2 33 9 65 16 73 6 8 9 25 7 39 -3 13 0 26 6 28 10 3
32 95 43 185 l5 42 -96 0 -96 0 4 -132z"/>
<path d="M6856 6078 c5 -1345 3 -2030 -4 -2278 -7 -195 -14 -449 -17 -565 -3
-115 -10 -285 -16 -378 -7 -116 -6 -173 1 -187 20 -38 125 -74 200 -68 l45 3
1 1003 c1 552 7 1194 13 1425 13 458 28 1046 36 1332 6 204 14 436 20 540 9
164 15 330 25 645 6 184 12 361 14 393 l4 57 -164 0 -165 0 7 -1922z"/>
<path d="M7524 7985 c-3 -8 -2 -20 3 -27 6 -10 12 -320 15 -858 0 -14 -4 -378
-8 -810 -9 -946 -9 -841 -5 -1360 5 -614 1 -1099 -9 -1225 -5 -60 -10 -150
-11 -200 -2 -139 -28 -579 -39 -659 -29 -207 -34 -236 -42 -236 -5 0 -7 3 -5
8 3 4 -8 8 -25 8 -17 1 -34 7 -38 14 -12 20 -33 6 -56 -37 l-21 -40 31 -11
c17 -6 47 -14 67 -17 20 -4 52 -22 75 -43 47 -43 186 -109 309 -147 50 -15
123 -40 163 -55 l72 -28 0 2869 0 2869 -235 0 c-197 0 -237 -2 -241 -15z"/>
<path d="M6387 7311 c-7 -34 1 -108 12 -116 4 -2 7 11 7 30 0 19 -4 31 -8 29
-4 -3 -8 1 -8 10 0 8 4 16 8 18 4 2 5 17 2 33 l-6 30 -7 -34z"/>
<path d="M4425 7254 c-20 -11 -52 -16 -100 -15 -38 1 -91 -5 -116 -13 -26 -8
-73 -17 -105 -21 -33 -4 -68 -14 -79 -21 -11 -8 -36 -14 -56 -14 -34 0 -189
-72 -391 -183 -65 -36 -67 -36 -103 -21 -20 8 -45 12 -56 9 -10 -4 -44 -8 -76
-11 -66 -5 -103 -25 -103 -57 0 -27 -17 -47 -41 -47 -9 0 -22 -7 -29 -15 -7
-8 -23 -15 -36 -15 -12 0 -30 -8 -39 -17 -16 -15 -15 -18 7 -35 l23 -18 -22
-6 c-23 -6 -32 -24 -13 -24 6 0 10 -4 10 -10 0 -5 -11 -10 -24 -10 -13 0 -34
-8 -47 -18 -13 -10 -35 -23 -49 -30 -56 -29 -78 -43 -106 -69 -16 -15 -31 -28
-34 -28 -34 -3 -69 -73 -68 -137 1 -39 -3 -50 -28 -71 -23 -20 -32 -23 -49
-13 -11 6 -23 15 -26 20 -4 4 -15 4 -25 -2 -14 -8 -25 -6 -44 8 -15 10 -39 22
-55 26 -16 4 -40 13 -54 20 -31 16 -81 18 -81 4 0 -6 7 -13 15 -16 23 -9 18
-27 -6 -21 -16 4 -18 3 -9 -8 6 -7 8 -24 5 -37 -4 -16 0 -32 13 -48 11 -14 22
-34 26 -45 3 -12 20 -29 38 -40 29 -17 30 -19 12 -26 -10 -4 -13 -8 -6 -8 6
-1 11 -4 11 -8 -4 -23 2 -43 11 -38 6 3 10 2 10 -4 0 -17 -42 -25 -51 -10 -6
10 -9 10 -9 2 0 -6 5 -15 11 -18 6 -4 8 -13 5 -21 -3 -8 1 -14 10 -14 8 0 13
4 9 9 -3 5 -1 12 4 15 18 12 23 -15 5 -28 -12 -9 -27 -11 -47 -5 -37 11 -54 1
-30 -16 10 -7 16 -15 13 -17 -19 -12 -50 -30 -77 -44 -18 -9 -31 -20 -28 -24
3 -5 2 -15 -1 -24 -8 -21 -42 -21 -46 0 -2 12 -12 8 -40 -20 -31 -30 -34 -36
-19 -41 10 -3 26 -3 35 1 11 4 16 1 16 -14 0 -22 22 -33 74 -37 17 -2 37 -3
44 -4 19 -2 14 -19 -8 -26 -11 -4 -18 -11 -15 -16 12 -18 83 -46 96 -38 10 6
7 11 -11 18 -24 9 -24 10 -2 10 21 1 30 15 15 24 -5 2 -2 2 5 0 8 -2 27 6 43
18 16 11 33 17 39 14 5 -3 10 -1 10 4 0 6 6 11 14 11 7 0 19 7 26 15 7 8 17
12 22 9 5 -3 1 -12 -9 -20 -12 -9 -13 -13 -5 -14 7 0 11 -4 8 -8 -3 -5 0 -9 7
-10 7 -1 32 -5 57 -8 44 -6 44 -5 23 11 -28 19 -49 55 -33 55 5 0 10 -5 10
-11 0 -14 39 -49 55 -49 6 0 12 -7 12 -16 0 -11 -7 -14 -26 -9 -25 6 -25 5 -6
-8 11 -8 32 -17 48 -21 15 -3 27 -11 27 -16 0 -6 7 -10 16 -10 10 0 14 -6 10
-15 -3 -8 4 -21 17 -30 24 -17 87 -21 87 -5 0 6 9 10 19 10 11 0 26 7 35 15 8
8 24 15 35 15 12 0 48 9 82 21 33 12 63 18 66 15 3 -3 -2 -8 -11 -12 -9 -4
-16 -17 -16 -34 0 -15 -7 -33 -15 -40 -20 -17 -10 -30 23 -30 20 0 23 3 12 10
-10 6 -6 9 16 8 29 -1 129 47 168 81 15 12 20 13 23 3 4 -10 8 -10 19 -1 11 9
14 9 14 0 0 -7 4 -10 9 -6 5 3 11 -7 13 -22 l3 -28 23 38 c13 20 30 37 37 37
16 0 26 -25 19 -44 -3 -8 -1 -17 5 -21 6 -3 11 -23 11 -43 l0 -37 33 38 c25
29 37 36 56 32 16 -3 30 2 40 14 19 22 61 37 61 22 0 -6 7 -11 15 -11 8 0 15
5 15 10 0 13 46 13 71 0 13 -7 19 -7 19 0 0 5 9 10 19 10 11 0 28 11 39 25 20
26 42 33 42 14 0 -6 9 -8 20 -4 18 6 20 3 14 -19 -7 -29 12 -35 45 -14 15 9
22 8 36 -5 9 -9 28 -19 43 -23 15 -3 35 -7 46 -9 12 -2 20 3 23 16 7 24 42 40
72 32 23 -6 23 -5 25 -83 1 -30 9 -71 18 -90 18 -40 23 -126 8 -135 -13 -8
-13 -57 1 -92 26 -64 32 -72 53 -70 17 2 22 -4 24 -30 2 -18 7 -33 13 -33 5 0
9 -8 9 -17 0 -13 2 -15 9 -5 6 10 17 10 52 2 24 -6 51 -11 60 -11 14 0 16 -8
12 -39 -7 -47 12 -107 42 -134 33 -31 86 -151 87 -199 1 -38 28 -84 41 -71 8
8 19 -85 11 -97 -4 -7 -1 -17 7 -23 13 -9 37 -84 41 -123 1 -7 6 -13 12 -13 6
0 12 -15 13 -33 1 -17 13 -55 27 -83 14 -29 26 -56 26 -62 0 -5 10 -17 23 -25
17 -13 19 -18 9 -25 -9 -6 -11 -19 -7 -38 5 -24 4 -26 -5 -11 -6 9 -16 17 -22
17 -6 0 -9 -3 -5 -6 3 -3 -5 -18 -19 -32 -24 -27 -33 -62 -15 -62 15 0 24 -40
12 -54 -6 -8 -9 -21 -5 -30 3 -9 -1 -27 -10 -41 -9 -13 -13 -31 -9 -41 4 -10
0 -20 -10 -26 -21 -11 -22 -28 -2 -28 27 0 15 -18 -15 -22 -16 -3 -30 -1 -30
4 0 5 -10 12 -22 17 -32 12 -54 -19 -37 -50 9 -17 8 -24 -2 -31 -11 -6 -9 -8
6 -6 14 2 21 -3 23 -19 2 -13 10 -23 18 -23 10 0 12 -5 7 -12 -12 -20 -14 -48
-3 -48 6 0 10 -4 10 -10 0 -5 -7 -10 -15 -10 -9 0 -18 -13 -22 -31 -4 -23 -12
-31 -34 -36 -33 -6 -48 -33 -19 -33 21 0 27 -15 10 -25 -6 -4 -10 -12 -8 -18
1 -7 -1 -22 -6 -34 -6 -18 -11 -21 -31 -13 -25 10 -57 -12 -35 -25 5 -3 10
-13 10 -21 0 -8 -5 -12 -10 -9 -12 7 -20 -10 -24 -51 -3 -24 -8 -29 -32 -29
-19 -1 -29 -6 -29 -15 0 -8 -8 -18 -17 -22 -10 -4 -18 -18 -18 -30 -1 -21 -2
-22 -14 -5 -19 25 -22 22 -36 -29 -8 -27 -16 -41 -20 -33 -4 6 -13 8 -19 5 -6
-4 -11 -2 -11 4 0 6 -4 9 -9 5 -16 -9 -5 -54 19 -80 19 -20 20 -25 8 -25 -9 0
-18 -6 -21 -12 -4 -10 -7 -10 -18 0 -11 10 -11 14 -1 21 19 11 4 38 -25 46
-32 8 -56 -11 -47 -38 4 -11 1 -23 -7 -28 -10 -6 -3 -12 24 -24 36 -15 56 -52
21 -38 -10 4 -22 -1 -30 -11 -11 -16 -14 -15 -29 15 -13 24 -19 29 -26 18 -7
-11 -11 -10 -23 6 -9 11 -16 30 -16 43 0 36 -14 25 -30 -26 -13 -40 -19 -47
-38 -44 -26 2 -57 -22 -47 -38 11 -18 -27 -11 -41 8 -9 11 -13 13 -14 4 0 -7
-4 -10 -10 -7 -5 3 -10 -2 -10 -12 0 -11 -7 -28 -15 -39 -12 -15 -16 -16 -23
-6 -7 11 -10 9 -15 -7 -3 -14 -10 -19 -21 -15 -17 7 -22 -11 -6 -21 13 -8 13
-25 1 -25 -5 0 -13 9 -16 20 -8 25 -22 26 -28 3 -4 -16 -5 -16 -6 -1 0 9 4 20
9 23 6 3 10 13 10 21 0 8 -5 12 -11 9 -6 -4 -13 2 -16 13 -4 16 -8 18 -18 9
-7 -7 -11 -17 -9 -22 3 -6 -10 -19 -27 -29 -27 -16 -30 -21 -17 -30 11 -9 13
-22 8 -61 -4 -27 -8 -42 -9 -32 0 9 -5 17 -11 17 -5 0 -10 7 -10 15 0 8 -9 15
-19 15 -23 0 -36 -16 -21 -25 5 -3 10 -1 10 6 0 33 11 -5 15 -54 5 -48 3 -56
-10 -51 -8 4 -15 11 -15 17 0 6 -7 4 -16 -5 -13 -12 -14 -20 -5 -37 7 -11 16
-21 21 -21 6 0 10 -10 10 -22 l0 -22 -16 23 c-13 18 -18 20 -25 10 -7 -11 -9
-9 -10 6 -3 51 -5 58 -14 62 -6 2 -10 -23 -11 -62 0 -41 -5 -70 -13 -77 -11
-11 -13 -7 -9 22 3 19 2 44 -2 55 -6 16 -8 14 -13 -13 -7 -32 -27 -45 -27 -17
0 16 -25 21 -35 6 -9 -15 -66 -41 -76 -35 -5 3 -9 -5 -9 -18 0 -14 -14 -35
-35 -53 -19 -17 -35 -38 -35 -48 0 -11 -4 -15 -11 -11 -8 5 -10 -1 -7 -18 4
-22 1 -25 -18 -24 -16 1 -22 6 -20 16 3 8 7 25 11 37 5 18 3 22 -9 17 -11 -4
-16 0 -16 11 0 9 -4 13 -10 10 -6 -3 -10 5 -10 19 0 33 -10 57 -21 50 -14 -8
-11 4 8 32 15 23 15 28 1 52 -9 15 -19 42 -23 59 -3 18 -11 36 -17 39 -7 5 -9
-3 -5 -22 3 -16 4 -23 1 -16 -9 20 -34 14 -34 -10 0 -17 -3 -19 -12 -10 -10
10 -10 17 0 32 9 15 9 22 -2 33 -8 7 -16 22 -19 33 -4 15 -5 13 -6 -6 -1 -30
-18 -50 -42 -50 -11 0 -19 -11 -23 -34 -4 -18 -15 -41 -26 -51 -11 -10 -20
-22 -20 -27 0 -5 -11 -24 -25 -42 -14 -18 -25 -45 -25 -59 0 -14 -4 -29 -10
-32 -5 -3 -10 -14 -10 -23 0 -12 3 -13 12 -4 15 15 28 15 28 0 0 -6 -3 -9 -6
-5 -20 20 -58 -72 -47 -113 4 -16 7 -17 19 -5 8 7 14 21 14 29 0 9 4 16 9 16
5 0 5 -16 0 -37 -4 -21 -5 -39 0 -41 9 -3 2 -63 -11 -78 -5 -7 -19 -32 -32
-58 -17 -34 -20 -46 -10 -46 18 0 18 -31 -1 -66 -19 -37 -21 -64 -3 -46 7 7
13 20 13 28 0 8 12 23 27 32 22 13 30 14 40 4 11 -11 10 -15 -4 -23 -22 -12
-23 -39 -2 -39 10 0 13 -6 9 -19 -3 -10 1 -23 9 -30 8 -7 12 -20 9 -28 -5 -12
-3 -14 8 -7 8 5 23 9 34 9 11 0 21 8 23 17 2 10 -1 18 -7 18 -6 0 -11 -4 -11
-10 0 -5 -5 -10 -11 -10 -7 0 -5 10 5 25 9 14 15 33 14 43 -2 10 3 17 12 17 8
0 18 3 21 8 8 11 49 17 49 7 0 -5 7 -7 16 -3 10 4 20 0 25 -10 5 -9 18 -14 29
-12 24 5 26 -8 5 -25 -8 -7 -15 -9 -15 -4 0 4 -5 3 -12 -4 -7 -7 -16 -12 -22
-12 -6 0 -5 5 2 12 18 18 14 31 -8 25 -11 -3 -20 -1 -20 4 0 5 -8 9 -18 9 -20
0 -47 -53 -38 -75 8 -22 28 -18 21 4 -3 11 -1 22 5 26 5 3 10 -2 10 -12 0 -10
4 -14 8 -8 7 10 92 15 92 5 0 -3 -9 -11 -21 -18 -12 -8 -18 -9 -14 -3 12 21
-15 11 -46 -17 -23 -20 -32 -38 -33 -65 -3 -37 10 -50 20 -22 5 13 8 13 21 0
8 -8 20 -15 26 -15 7 0 6 4 -3 10 -12 8 -11 10 8 10 12 0 22 6 22 13 0 7 15
20 34 28 33 15 34 15 51 -13 10 -17 21 -26 28 -21 7 4 18 8 25 9 11 2 11 -1 0
-14 -17 -19 -21 -62 -7 -62 5 0 9 8 9 18 0 11 3 13 8 5 13 -20 65 -8 96 22 25
25 31 27 49 15 15 -9 22 -10 25 -1 6 19 21 12 17 -8 -2 -14 3 -20 21 -24 13
-2 27 0 30 5 3 4 10 5 16 2 5 -4 5 4 -2 16 -11 20 -10 22 3 17 10 -4 17 1 20
11 3 12 5 10 6 -6 1 -21 2 -22 17 -8 8 9 20 14 25 11 5 -3 17 -1 27 4 22 12
42 -3 42 -31 0 -9 16 -28 36 -42 20 -13 80 -65 133 -114 181 -167 290 -253
461 -364 156 -100 240 -142 478 -238 239 -96 259 -101 301 -71 37 27 32 40
-22 65 -23 11 -61 39 -85 63 -24 24 -48 43 -53 43 -5 0 -26 10 -47 23 -21 12
-47 27 -57 33 -26 14 -34 81 -11 90 22 8 20 24 -3 24 -32 0 -47 27 -34 61 11
28 10 31 -29 55 -22 14 -46 23 -53 20 -7 -2 -17 0 -23 6 -16 16 -29 2 -26 -29
6 -60 19 -87 36 -77 8 5 9 1 5 -10 -4 -10 -7 -20 -7 -22 0 -14 -55 0 -74 20
-13 12 -31 26 -41 29 -21 9 -10 27 17 27 17 0 19 4 13 28 -11 46 -21 45 -49
-2 -15 -25 -34 -46 -42 -46 -10 0 -14 6 -10 15 4 11 -2 15 -23 15 -49 0 -61 9
-61 47 0 32 -2 34 -27 31 -30 -3 -47 -38 -19 -38 21 0 31 -20 16 -33 -10 -9
-14 -9 -17 1 -3 7 -16 25 -29 40 -23 25 -25 26 -38 9 -13 -16 -14 -16 -30 7
-9 14 -13 31 -10 39 3 8 1 18 -5 22 -13 7 -39 -6 -40 -20 -1 -21 -39 -15 -70
10 -17 15 -39 28 -48 29 -12 2 -20 15 -24 39 -6 40 4 57 36 57 15 0 24 9 30
32 6 18 24 42 41 53 30 20 31 23 17 48 -8 15 -11 32 -8 37 3 5 -12 12 -34 16
-22 3 -42 13 -45 20 -3 8 -14 14 -25 14 -11 0 -23 9 -26 21 -4 12 -12 18 -21
15 -26 -10 -14 9 19 29 l32 19 -33 4 c-25 3 -32 7 -28 19 4 8 -3 23 -16 34
l-23 19 22 19 c12 10 25 30 29 45 3 14 10 26 15 26 5 0 9 7 9 15 0 8 5 15 10
15 6 0 10 -7 10 -15 0 -8 5 -15 10 -15 6 0 10 7 10 16 0 10 5 14 16 10 8 -3
12 -2 9 4 -3 6 -1 10 4 10 6 0 11 10 12 23 0 21 1 21 9 2 9 -19 9 -19 16 2 3
13 13 23 20 23 8 0 14 6 14 14 0 8 11 17 25 20 16 4 25 13 25 26 0 11 5 20 10
20 6 0 15 10 20 22 6 17 9 18 9 6 1 -15 4 -15 27 -4 14 8 24 15 23 17 -5 9 23
49 34 49 15 0 47 35 47 51 0 8 4 8 14 0 12 -10 16 -8 22 11 4 13 7 27 5 32 -2
9 18 26 32 26 5 0 5 -4 2 -10 -3 -5 -1 -10 4 -10 6 0 11 7 11 15 0 8 11 22 26
31 14 9 23 22 20 29 -2 6 11 24 30 40 19 16 34 34 34 41 0 8 6 11 13 8 8 -3
20 2 27 10 7 9 17 13 24 9 6 -4 5 1 -3 10 -12 15 -11 17 2 17 9 0 24 9 34 19
12 13 23 17 32 11 8 -4 20 -6 28 -3 9 4 11 0 7 -11 -4 -12 0 -16 16 -16 16 0
20 -4 16 -16 -3 -9 -6 -22 -6 -30 0 -8 -9 -14 -19 -14 -26 0 -37 -18 -16 -26
10 -4 13 -13 9 -26 -5 -17 -2 -19 14 -14 11 4 23 2 26 -3 4 -6 14 -7 22 -4 12
4 14 14 9 39 -7 41 14 55 77 51 35 -2 42 -5 40 -20 -2 -12 4 -17 22 -17 19 0
26 7 31 30 4 16 12 30 18 30 15 0 20 107 6 115 -5 4 -9 -2 -10 -12 0 -14 -2
-14 -9 5 -5 12 -14 22 -20 22 -5 0 -10 7 -10 15 0 8 -5 15 -11 15 -8 0 -8 4 1
15 16 20 50 2 50 -26 0 -12 5 -19 13 -16 6 2 10 14 9 27 -4 21 -2 22 12 10 10
-7 14 -20 11 -28 -3 -9 0 -19 7 -24 17 -11 31 -10 24 1 -4 5 2 23 11 39 16 28
16 31 0 56 -17 26 -17 27 11 54 16 15 35 43 42 62 25 70 35 90 42 90 11 0 10
37 -2 60 -5 11 -15 29 -21 41 -14 27 -11 29 47 33 45 2 49 5 52 29 4 30 23 35
45 13 16 -16 37 -4 37 22 0 7 6 12 13 9 6 -2 11 -12 9 -21 -2 -9 4 -19 13 -22
8 -3 15 -13 15 -21 0 -9 -6 -13 -15 -9 -18 7 -18 -2 0 -34 8 -14 14 -35 15
-46 0 -12 14 -36 30 -54 30 -32 39 -60 20 -60 -5 0 -10 -11 -10 -24 0 -14 5
-28 10 -31 6 -3 10 -17 10 -31 0 -15 6 -24 15 -24 12 0 15 -11 12 -53 -3 -45
0 -55 21 -71 13 -10 21 -25 18 -32 -3 -8 4 -18 14 -24 11 -6 20 -20 20 -31 0
-10 11 -37 25 -59 14 -22 25 -48 25 -59 0 -10 7 -24 15 -31 8 -7 15 -17 15
-22 0 -15 -24 -35 -38 -30 -7 2 -12 -5 -12 -20 0 -30 15 -52 29 -44 8 5 8 0 1
-20 -8 -21 -7 -31 5 -44 19 -21 19 -36 0 -44 -8 -3 -15 -11 -15 -18 0 -10 2
-10 9 1 6 9 10 10 16 2 10 -18 -14 -41 -42 -41 -18 0 -23 -4 -20 -14 3 -8 -3
-22 -14 -32 -10 -9 -19 -30 -19 -45 0 -19 -6 -30 -20 -34 -25 -8 -26 -24 -2
-41 14 -10 15 -15 5 -25 -7 -7 -13 -21 -13 -30 0 -10 -9 -21 -20 -24 -28 -9
-25 -22 12 -45 31 -19 31 -19 59 3 15 12 28 29 28 38 1 9 10 19 21 22 17 4 20
0 20 -23 0 -16 -6 -30 -12 -33 -10 -3 -10 -7 -1 -18 7 -9 10 -40 8 -84 -3 -59
-7 -71 -24 -79 -27 -12 -27 -26 0 -26 16 0 19 -4 14 -20 -4 -12 -2 -27 5 -35
15 -18 -6 -31 -25 -15 -13 10 -15 8 -15 -14 0 -15 7 -29 16 -33 13 -5 13 -7 2
-14 -20 -13 -25 -11 -32 14 -3 14 -14 23 -26 24 -18 2 -19 0 -5 -13 20 -20 19
-31 -4 -44 -30 -15 -33 -13 -26 19 4 19 0 41 -11 62 -16 32 -16 34 5 47 26 18
27 42 1 42 -26 0 -46 36 -29 56 6 8 9 18 5 21 -17 17 -44 10 -74 -20 -18 -17
-41 -32 -50 -32 -11 0 -21 -13 -28 -35 -7 -21 -22 -40 -38 -48 -25 -13 -34
-36 -18 -46 10 -6 9 -42 -1 -52 -4 -4 -7 -24 -7 -45 0 -28 -5 -41 -20 -49 -16
-8 -20 -21 -20 -60 0 -28 -4 -50 -10 -50 -5 0 -10 -9 -10 -20 0 -11 4 -20 10
-20 6 0 5 -9 -1 -24 -8 -17 -8 -30 2 -47 7 -13 14 -59 15 -101 3 -63 1 -78
-11 -78 -8 0 -15 -9 -15 -19 0 -14 -8 -21 -27 -23 -16 -2 -27 -8 -25 -16 1 -7
-10 -23 -24 -36 -37 -31 -24 -49 19 -29 17 9 43 24 57 34 14 9 46 28 70 42 59
32 157 92 176 108 8 7 35 43 60 80 25 37 54 75 65 85 10 9 19 28 19 41 0 14
13 35 34 54 34 29 71 112 60 131 -4 6 -2 20 4 31 16 35 33 148 37 243 8 191
18 282 40 369 63 245 138 664 132 740 -7 86 -42 180 -92 246 -60 78 -62 84
-75 179 -14 96 -6 287 15 390 7 36 16 86 20 112 3 28 16 60 31 77 13 16 24 38
24 49 0 12 5 24 11 27 16 10 28 50 49 160 11 55 24 116 30 135 5 19 14 105 19
191 6 93 16 171 25 195 44 113 65 575 32 724 -8 41 -27 127 -40 190 -30 141
-43 185 -66 230 -10 19 -26 55 -35 80 -9 25 -27 62 -41 82 -13 21 -24 42 -24
47 0 6 -13 33 -30 61 -16 28 -30 55 -30 60 0 6 -5 10 -10 10 -6 0 -17 15 -24
33 -8 17 -21 48 -30 68 -8 20 -30 52 -48 72 -18 20 -40 49 -49 66 -10 16 -40
46 -67 68 -28 21 -54 45 -57 54 -3 9 -25 37 -48 62 -23 25 -54 68 -69 96 -17
31 -40 57 -60 67 -33 17 -127 91 -190 150 -26 24 -46 34 -69 34 -18 0 -55 11
-83 24 -55 25 -167 56 -207 56 -13 0 -46 11 -74 23 -117 54 -296 80 -350 51z
m-1025 -345 c0 -6 -4 -7 -10 -4 -5 3 -10 11 -10 16 0 6 5 7 10 4 6 -3 10 -11
10 -16z m-49 -81 c-5 -18 -14 -48 -18 -67 -5 -19 -14 -36 -21 -39 -17 -5 -15
43 2 57 8 7 18 27 22 44 7 37 14 50 21 43 3 -2 0 -19 -6 -38z m-79 -37 c-12
-33 -7 -116 9 -158 7 -20 6 -30 -4 -41 -12 -12 -15 -9 -21 23 -4 21 -12 48
-17 62 -9 24 -11 25 -28 9 -24 -22 -49 -20 -47 3 1 20 41 62 76 81 11 6 20 19
20 29 0 10 3 21 7 24 13 13 15 -2 5 -32z m-113 -203 c-6 -18 -13 -39 -15 -47
-3 -8 -7 -12 -10 -9 -7 7 19 88 28 88 4 0 2 -15 -3 -32z m60 0 c0 -27 -2 -29
-8 -13 -5 11 -6 26 -4 33 8 21 13 13 12 -20z m-712 -244 c13 -4 20 -10 18 -15
-7 -11 15 -50 38 -67 9 -7 17 -18 17 -23 0 -10 -76 45 -97 71 -7 8 -13 11 -13
6 0 -4 11 -22 25 -38 26 -30 25 -59 0 -38 -8 7 -19 9 -25 5 -5 -3 -10 1 -10
10 0 9 -7 29 -15 45 -14 26 -14 29 0 24 10 -4 15 0 15 10 0 17 11 19 47 10z
m557 -193 c-6 -7 -104 91 -104 104 0 5 24 -15 54 -45 30 -30 52 -57 50 -59z
m-139 79 c3 -5 1 -10 -4 -10 -6 0 -11 5 -11 10 0 6 2 10 4 10 3 0 8 -4 11 -10z
m25 -30 c0 -5 -4 -10 -10 -10 -5 0 -10 5 -10 10 0 6 5 10 10 10 6 0 10 -4 10
-10z m190 -66 c0 -7 7 -14 15 -18 8 -3 15 -13 15 -21 0 -23 -20 -1 -48 53 -27
53 -28 67 -2 27 11 -16 20 -35 20 -41z m-34 -11 c-7 -7 -26 7 -26 19 0 6 6 6
15 -2 9 -7 13 -15 11 -17z m-132 -29 c7 -19 2 -18 -19 6 -16 17 -16 20 -3 15
9 -4 19 -13 22 -21z m-208 -6 c39 -18 103 -89 104 -114 0 -22 45 -74 63 -74 8
0 7 -4 0 -11 -13 -13 4 -62 18 -54 4 3 10 1 13 -4 3 -5 -1 -12 -10 -15 -11 -4
-29 7 -55 34 -22 23 -39 35 -40 28 0 -9 -2 -8 -6 2 -7 20 -44 60 -55 60 -5 0
-16 7 -24 15 -19 19 -44 19 -44 1 0 -11 -5 -12 -24 -3 -13 7 -22 15 -20 19 3
5 -4 8 -15 8 -12 0 -21 5 -21 11 0 6 7 8 16 5 37 -14 64 -18 64 -8 0 6 -6 12
-12 15 -7 2 -10 7 -7 11 4 4 23 -2 42 -13 42 -23 60 -10 22 15 -20 13 -23 19
-13 26 8 5 9 11 3 16 -15 11 -38 42 -32 42 3 0 18 -6 33 -12z m458 -13 c3 -8
1 -15 -3 -15 -5 0 -11 7 -15 15 -3 8 -1 15 3 15 5 0 11 -7 15 -15z m41 -45
c10 -11 24 -20 30 -20 12 0 86 -60 74 -60 -3 0 -21 8 -40 17 -38 19 -110 83
-93 83 6 0 19 -9 29 -20z m-662 0 c7 0 18 -9 25 -20 12 -20 12 -20 -15 -6 -15
8 -35 20 -43 27 -13 9 -12 10 3 5 10 -3 24 -6 30 -6z m57 -150 c8 -5 11 -12 8
-16 -4 -3 -14 1 -23 10 -18 17 -9 21 15 6z m-210 -60 c-10 -18 -13 -19 -25 -6
-21 21 -19 26 10 26 23 0 24 -2 15 -20z m0 -40 c0 -5 -7 -10 -16 -10 -8 0 -12
5 -9 10 3 6 10 10 16 10 5 0 9 -4 9 -10z m796 -102 c4 -6 3 -8 -4 -4 -6 3 -13
2 -17 -4 -3 -5 -16 -10 -28 -10 -22 1 -22 1 -3 15 24 18 42 19 52 3z m1074
-339 c0 -6 -4 -7 -10 -4 -5 3 -10 11 -10 16 0 6 5 7 10 4 6 -3 10 -11 10 -16z
m1310 -434 c0 -8 4 -15 8 -15 5 0 15 -11 22 -25 7 -14 15 -23 18 -21 2 3 22
-6 43 -20 21 -13 42 -24 46 -24 19 0 93 -94 107 -138 28 -84 3 -232 -65 -380
-16 -35 -29 -66 -29 -68 0 -3 -28 -62 -62 -131 -48 -97 -72 -134 -105 -161
-24 -20 -43 -41 -43 -46 0 -17 -63 -76 -81 -76 -9 0 -19 -9 -22 -19 -7 -29
-59 -57 -129 -71 -67 -13 -108 -29 -108 -42 0 -14 -18 -9 -24 7 -8 21 9 49 67
109 26 28 47 58 47 67 0 10 3 24 6 32 10 27 -33 59 -74 55 -33 -3 -37 -1 -38
22 -17 374 -17 377 50 397 50 16 59 1 57 -100 -1 -64 -6 -88 -21 -109 -40 -54
-35 -118 8 -118 29 0 81 45 107 91 25 47 41 59 75 59 9 0 23 6 29 13 8 11 5
16 -14 25 -14 6 -25 20 -26 29 0 10 -1 74 -2 142 l-2 123 -37 19 c-20 10 -40
23 -43 29 -13 20 -23 9 -40 -45 -9 -30 -21 -55 -27 -55 -5 0 -48 39 -95 86
l-85 86 7 51 c9 77 49 117 130 131 22 4 75 25 118 47 83 42 130 56 190 58 27
1 37 -3 37 -14z m-796 -856 c-3 -5 -10 -7 -15 -3 -5 3 -7 10 -3 15 3 5 10 7
15 3 5 -3 7 -10 3 -15z m-111 -465 c-3 -8 1 -14 8 -14 7 0 10 -2 7 -5 -3 -3
-17 -1 -31 4 -30 12 -27 42 3 34 11 -3 16 -11 13 -19z m747 -133 c0 -6 -4 -13
-10 -16 -5 -3 -10 1 -10 9 0 9 5 16 10 16 6 0 10 -4 10 -9z m-783 -47 c-3 -3
-12 -4 -19 -1 -8 3 -5 6 6 6 11 1 17 -2 13 -5z m743 -4 c0 -5 -5 -10 -11 -10
-5 0 -7 5 -4 10 3 6 8 10 11 10 2 0 4 -4 4 -10z m-860 -36 c0 -8 -4 -14 -8
-14 -4 0 -8 9 -8 19 0 11 4 17 8 15 4 -3 8 -12 8 -20z m-285 -214 c3 -5 -1
-10 -9 -10 -9 0 -16 5 -16 10 0 6 4 10 9 10 6 0 13 -4 16 -10z m689 -235 c-4
-8 -10 -13 -15 -10 -4 3 -6 12 -3 20 4 8 10 13 15 10 4 -3 6 -12 3 -20z
m-1144 5 c0 -5 -4 -10 -10 -10 -5 0 -10 5 -10 10 0 6 5 10 10 10 6 0 10 -4 10
-10z m1224 -59 c3 -5 -1 -11 -9 -15 -15 -6 -29 7 -18 18 9 9 21 8 27 -3z
m-1311 -195 c-3 -4 -9 -2 -14 5 -13 22 -11 31 5 17 8 -7 12 -17 9 -22z m-16
-78 c-3 -7 -5 -2 -5 12 0 14 2 19 5 13 2 -7 2 -19 0 -25z m6 -38 c-3 -12 -8
-19 -11 -16 -5 6 5 36 12 36 2 0 2 -9 -1 -20z m-453 -14 c0 -2 -8 -10 -17 -17
-16 -13 -17 -12 -4 4 13 16 21 21 21 13z m-153 -43 c-3 -10 -5 -4 -5 12 0 17
2 24 5 18 2 -7 2 -21 0 -30z m70 20 c4 -10 11 -21 17 -25 13 -9 -13 -30 -26
-22 -4 3 -8 -2 -8 -11 0 -12 5 -15 18 -11 16 6 16 5 -1 -8 -10 -8 -23 -31 -28
-51 -7 -25 -14 -34 -21 -27 -7 7 -6 16 1 30 14 27 15 64 1 42 -17 -27 -24 1
-8 33 9 18 19 40 22 50 3 9 10 17 16 17 6 0 14 -8 17 -17z m-110 -15 c-3 -8
-6 -5 -6 6 -1 11 2 17 5 13 3 -3 4 -12 1 -19z m314 -67 c-6 -10 -8 -21 -4 -24
3 -4 -1 -17 -9 -29 -22 -33 -29 -100 -10 -93 10 4 13 0 9 -15 -3 -11 0 -20 6
-21 8 0 8 -2 0 -6 -7 -2 -13 -14 -13 -24 0 -11 5 -17 10 -14 6 3 10 1 10 -5 0
-7 7 -10 15 -7 8 4 17 2 20 -3 4 -6 1 -10 -5 -10 -6 0 -15 -10 -20 -22 -8 -22
-9 -21 -9 7 -1 34 -18 23 -23 -15 -2 -16 -9 -25 -19 -24 -11 1 -15 -5 -12 -15
4 -16 -32 -59 -41 -50 -3 2 -7 18 -10 34 -4 21 -4 24 2 11 8 -18 9 -18 15 -2
4 10 5 21 3 25 -3 4 5 8 16 8 30 3 33 13 29 79 -2 44 -5 54 -13 40 -5 -9 -11
-27 -12 -40 -1 -13 -13 -36 -26 -52 -15 -19 -20 -22 -15 -9 5 11 9 31 9 45 0
14 7 30 15 36 8 6 14 28 14 52 0 23 4 42 9 42 5 0 -3 20 -17 45 -28 50 -29 55
-16 55 5 0 16 -16 25 -35 19 -39 37 -48 28 -13 -3 13 -1 19 5 15 14 -9 25 36
17 71 l-6 27 16 -22 c13 -17 14 -28 7 -42z m-349 4 c3 -15 1 -25 -6 -25 -6 0
-12 11 -12 25 -2 32 12 32 18 0z m181 -57 c5 -56 -8 -63 -22 -12 -7 26 -7 41
2 55 14 22 14 21 20 -43z m287 41 c0 -13 10 -23 31 -31 20 -7 27 -14 21 -20
-6 -6 -18 -6 -32 2 -22 12 -23 11 -16 -21 3 -18 12 -37 19 -41 9 -6 9 -8 -2
-8 -8 0 -11 -7 -8 -20 3 -11 1 -20 -3 -20 -11 0 -30 57 -30 92 0 16 -8 37 -17
46 -16 16 -16 17 0 20 9 2 17 8 17 13 0 5 5 9 10 9 6 0 10 -9 10 -21z m-218
-61 c-7 -7 -12 -8 -12 -2 0 14 12 26 19 19 2 -3 -1 -11 -7 -17z m132 -9 c-3
-5 -9 -7 -14 -4 -4 3 -11 -1 -13 -7 -3 -7 -6 -3 -6 9 -1 16 3 20 19 16 11 -3
17 -9 14 -14z m2337 -8 c-8 -5 -21 -7 -29 -3 -12 4 -12 7 4 19 12 9 21 10 28
3 8 -8 7 -13 -3 -19z m-2628 -13 c6 -22 5 -22 -8 -4 -17 22 -20 40 -6 32 5 -3
11 -16 14 -28z m424 -25 c-3 -10 -5 -2 -5 17 0 19 2 27 5 18 2 -10 2 -26 0
-35z m-292 27 c3 -5 1 -18 -4 -27 -6 -10 -11 -13 -11 -6 0 6 -3 18 -6 27 -7
17 11 22 21 6z m159 -83 c5 -40 -9 -52 -16 -14 -4 23 1 61 8 55 2 -3 6 -21 8
-41z m-174 19 c0 -8 -4 -18 -10 -21 -5 -3 -10 3 -10 14 0 12 5 21 10 21 6 0
10 -6 10 -14z m-72 -89 c-23 -36 -56 -62 -66 -53 -3 3 14 25 36 48 23 23 42
47 43 52 0 7 3 6 5 -1 3 -6 -5 -27 -18 -46z m322 39 c0 -8 -4 -18 -10 -21 -5
-3 -10 3 -10 14 0 12 5 21 10 21 6 0 10 -6 10 -14z m-227 -9 c6 4 1 -8 -12
-25 -20 -29 -41 -42 -41 -26 0 14 35 64 38 54 2 -5 9 -7 15 -3z m-213 -67 c0
-5 -4 -10 -10 -10 -5 0 -10 5 -10 10 0 6 5 10 10 10 6 0 10 -4 10 -10z m440
-120 c0 -13 -20 -13 -40 0 -12 8 -9 10 13 10 15 0 27 -4 27 -10z m-96 -72 c-6
-9 -34 1 -34 12 0 5 6 10 13 13 13 4 28 -13 21 -25z m346 13 c0 -12 -20 -25
-27 -18 -7 7 6 27 18 27 5 0 9 -4 9 -9z m-540 -25 c0 -3 -4 -8 -10 -11 -5 -3
-10 -1 -10 4 0 6 5 11 10 11 6 0 10 -2 10 -4z m2569 -173 c0 -5 -4 -17 -9 -28
-8 -18 -9 -17 -9 8 -1 15 4 27 9 27 6 0 10 -3 9 -7z m-73 -81 c-22 -5 -30 3
-21 18 5 8 11 7 22 -2 15 -12 14 -13 -1 -16z m-26 -52 c0 -5 -4 -10 -10 -10
-5 0 -10 5 -10 10 0 6 5 10 10 10 6 0 10 -4 10 -10z m-54 -137 c-11 -11 -19 6
-11 24 8 17 8 17 12 0 3 -10 2 -21 -1 -24z m-30 -50 c-10 -10 -19 5 -10 18 6
11 8 11 12 0 2 -7 1 -15 -2 -18z m-29 -50 c-3 -10 -5 -4 -5 12 0 17 2 24 5 18
2 -7 2 -21 0 -30z m-722 -83 c3 -5 2 -10 -4 -10 -5 0 -13 5 -16 10 -3 6 -2 10
4 10 5 0 13 -4 16 -10z"/>
<path d="M5637 4763 c19 -14 44 -82 55 -148 5 -33 14 -82 19 -110 20 -101 22
-199 5 -249 -21 -60 -20 -63 5 -40 45 41 68 97 80 198 15 115 7 159 -47 259
-40 76 -49 85 -95 93 -20 3 -29 2 -22 -3z"/>
<path d="M5417 4688 c-13 -18 -27 -45 -31 -60 -6 -26 -4 -28 23 -28 37 0 47
14 56 73 6 39 5 47 -8 47 -9 0 -27 -15 -40 -32z"/>
<path d="M5535 4087 c-6 -7 -16 -24 -22 -39 -18 -40 2 -46 38 -12 33 31 37 49
13 58 -19 7 -17 8 -29 -7z"/>
<path d="M2716 6428 c-3 -13 -5 -32 -5 -43 1 -11 5 -2 10 19 10 42 6 62 -5 24z"/>
<path d="M2405 6200 c3 -5 8 -10 11 -10 2 0 4 5 4 10 0 6 -5 10 -11 10 -5 0
-7 -4 -4 -10z"/>
<path d="M2421 6130 c0 -14 4 -32 9 -40 8 -12 10 -12 9 5 0 11 -4 29 -9 40 -8
18 -9 18 -9 -5z"/>
<path d="M2320 5940 c0 -5 5 -10 11 -10 5 0 7 5 4 10 -3 6 -8 10 -11 10 -2 0
-4 -4 -4 -10z"/>
<path d="M2178 5823 c6 -2 18 -2 25 0 6 3 1 5 -13 5 -14 0 -19 -2 -12 -5z"/>
<path d="M2345 5770 c3 -5 8 -10 11 -10 2 0 4 5 4 10 0 6 -5 10 -11 10 -5 0
-7 -4 -4 -10z"/>
<path d="M2555 5709 c-10 -15 3 -25 16 -12 7 7 7 13 1 17 -6 3 -14 1 -17 -5z"/>
<path d="M2230 5700 c-8 -5 -10 -10 -5 -10 6 0 17 5 25 10 8 5 11 10 5 10 -5
0 -17 -5 -25 -10z"/>
<path d="M2670 5690 c0 -13 18 -22 24 -11 3 5 -1 11 -9 15 -8 3 -15 1 -15 -4z"/>
<path d="M2715 5681 c-3 -5 -1 -12 5 -16 5 -3 10 1 10 9 0 18 -6 21 -15 7z"/>
<path d="M2502 5648 c-7 -7 -12 -19 -12 -27 0 -11 5 -8 16 7 18 25 15 39 -4
20z"/>
<path d="M2431 5564 c0 -11 3 -14 6 -6 3 7 2 16 -1 19 -3 4 -6 -2 -5 -13z"/>
<path d="M4093 4903 c-7 -2 -13 -16 -13 -29 0 -20 -5 -24 -30 -24 -20 0 -30
-5 -30 -15 0 -8 -5 -15 -11 -15 -6 0 -8 7 -5 15 5 14 3 14 -15 1 -16 -11 -29
-12 -56 -4 -40 11 -116 5 -120 -9 -2 -5 -18 -7 -36 -5 -29 5 -31 3 -18 -12 9
-10 10 -16 2 -16 -6 0 -11 -4 -11 -10 0 -5 14 -10 31 -10 17 0 40 -5 52 -12
12 -6 42 -12 67 -14 62 -3 153 -22 160 -34 3 -5 25 -12 48 -16 26 -4 42 -12
42 -20 0 -8 8 -14 19 -14 10 0 30 -10 45 -21 31 -24 29 -25 43 23 9 30 8 39
-6 52 -14 15 -14 18 -1 26 13 9 7 14 -12 11 -14 -2 -8 20 6 25 8 3 12 12 9 20
-4 10 -10 11 -23 4 -25 -14 -29 -13 -26 8 3 13 11 16 35 14 30 -3 31 -2 20 16
-9 14 -24 20 -48 20 -19 0 -40 6 -46 14 -9 12 -51 39 -57 37 -2 0 -9 -3 -15
-6z"/>
<path d="M3620 4867 c0 -7 5 -18 12 -25 9 -9 3 -12 -27 -13 -32 0 -36 -2 -20
-9 l20 -9 -20 -2 c-11 -1 -31 -1 -43 0 -13 1 -21 -2 -19 -6 3 -5 2 -15 -4 -23
-6 -10 -9 -11 -9 -2 0 6 -6 12 -14 12 -9 0 -12 7 -9 20 7 25 -26 27 -62 4 -23
-15 -25 -15 -25 0 0 44 -228 -14 -230 -59 0 -5 -4 -4 -9 4 -8 12 -15 8 -40
-18 -34 -36 -38 -48 -26 -74 13 -30 56 -46 100 -37 79 17 156 41 188 60 18 11
62 24 97 29 36 6 86 17 112 25 25 8 49 12 52 9 8 -9 37 18 33 31 -5 15 23 42
52 51 l25 8 -25 12 c-39 20 -109 28 -109 12z m-453 -149 c-3 -8 -6 -5 -6 6 -1
11 2 17 5 13 3 -3 4 -12 1 -19z"/>
<path d="M2588 4738 c-4 -25 38 -78 61 -78 8 0 4 8 -10 19 -13 11 -20 23 -16
27 4 5 21 -6 38 -24 32 -34 80 -53 87 -34 2 7 12 12 22 12 57 0 -11 52 -73 56
-16 1 -38 11 -51 23 -29 27 -54 27 -58 -1z"/>
<path d="M3364 4631 c3 -5 -1 -11 -8 -14 -26 -10 4 -57 37 -57 29 0 38 -25 15
-48 -6 -6 -10 -13 -7 -15 2 -2 45 -1 94 3 50 4 80 8 68 8 -12 1 -29 5 -37 8
-15 6 -15 8 1 20 15 11 16 16 5 34 -12 20 -11 21 20 18 24 -2 33 1 33 12 0 10
-20 18 -70 27 -84 14 -158 16 -151 4z m136 -71 c0 -16 -4 -30 -9 -30 -10 0
-22 40 -15 52 11 18 24 6 24 -22z"/>
<path d="M2658 4621 c-31 -3 -59 -9 -63 -13 -10 -10 4 -28 21 -28 8 0 14 -7
14 -17 0 -9 3 -13 7 -9 4 4 8 15 8 24 0 13 13 16 88 14 64 -1 87 2 84 11 -7
23 -56 29 -159 18z"/>
<path d="M3118 4613 c7 -3 16 -2 19 1 4 3 -2 6 -13 5 -11 0 -14 -3 -6 -6z"/>
<path d="M4265 4590 c-3 -6 1 -7 9 -4 18 7 21 14 7 14 -6 0 -13 -4 -16 -10z"/>
<path d="M3143 4563 c-13 -9 -23 -24 -23 -34 0 -10 -9 -24 -21 -33 -21 -14
-49 -59 -49 -78 0 -6 -9 -19 -20 -28 -11 -10 -32 -46 -46 -80 -14 -34 -36 -79
-50 -101 -13 -22 -27 -61 -31 -87 -3 -26 -13 -55 -21 -65 -14 -16 -14 -19 -2
-28 13 -7 13 -10 1 -18 -10 -7 -11 -13 -1 -31 6 -12 8 -29 4 -38 -11 -26 -13
-76 -3 -83 5 -3 11 -20 14 -38 2 -18 6 -35 8 -37 9 -10 136 -19 191 -14 63 6
110 -9 120 -38 3 -9 9 -23 12 -31 5 -11 -3 -13 -42 -8 -27 3 -69 11 -94 16
-101 23 -220 8 -220 -27 0 -11 8 -13 34 -8 19 4 52 4 74 0 37 -6 40 -9 45 -43
3 -26 -1 -42 -14 -57 -11 -11 -16 -23 -13 -27 4 -4 1 -13 -6 -22 -7 -9 -10
-18 -6 -22 3 -3 6 -1 6 5 0 7 5 11 12 9 17 -3 64 -104 73 -154 7 -43 21 -53
43 -31 9 9 12 8 12 -6 0 -9 4 -15 9 -12 5 3 12 -2 16 -12 6 -15 8 -14 18 8 9
21 11 22 14 7 4 -14 11 -17 29 -13 16 4 26 2 30 -7 6 -16 36 -18 46 -3 5 7 8
7 8 1 0 -16 50 -11 61 6 8 12 11 11 23 -3 17 -23 44 -23 42 -2 0 9 7 18 17 19
12 2 17 -3 17 -20 0 -37 17 -39 21 -2 3 23 -2 38 -18 53 -12 12 -24 19 -27 16
-3 -3 -6 1 -6 8 0 7 -8 20 -19 29 -10 9 -21 26 -25 38 -4 13 -13 29 -19 35
-30 31 -48 73 -54 118 -5 44 -2 55 27 100 32 50 32 50 20 117 -6 37 -16 76
-22 87 -10 19 -77 101 -135 165 -15 17 -24 43 -29 90 -3 36 -12 81 -20 98 -10
27 -10 35 0 45 7 7 16 26 20 42 12 50 44 85 87 96 21 6 39 16 39 21 0 6 -7 9
-15 6 -24 -10 -28 13 -6 34 12 11 21 26 21 33 0 20 -48 17 -53 -3 -4 -13 -5
-12 -6 3 -1 14 -4 16 -15 7 -20 -17 -50 -3 -35 15 23 28 -14 40 -48 17z"/>
<path d="M2710 4546 c0 -22 3 -27 11 -19 8 8 8 16 0 30 -9 16 -10 14 -11 -11z"/>
<path d="M3723 4562 c-13 -2 -23 -9 -23 -17 0 -7 -6 -15 -12 -18 -9 -3 -7 -9
7 -20 11 -8 23 -13 27 -10 5 2 11 -3 14 -12 4 -9 16 -15 28 -14 11 2 32 -3 45
-10 18 -10 29 -10 48 -2 25 11 25 11 6 43 -19 33 -97 67 -140 60z"/>
<path d="M4310 4560 c-12 -8 -12 -10 3 -16 21 -8 35 2 21 16 -5 5 -15 6 -24 0z"/>
<path d="M3322 4509 c-13 -16 -18 -30 -13 -34 6 -3 17 8 26 26 21 40 16 44
-13 8z"/>
<path d="M3650 4490 c0 -13 11 -13 30 0 12 8 11 10 -7 10 -13 0 -23 -4 -23
-10z"/>
<path d="M2878 4473 c7 -3 16 -2 19 1 4 3 -2 6 -13 5 -11 0 -14 -3 -6 -6z"/>
<path d="M3310 4400 c0 -10 9 -24 20 -30 23 -12 24 -11 10 24 -11 31 -30 34
-30 6z"/>
<path d="M2930 3532 c-16 -18 -23 -72 -9 -72 5 0 9 7 9 16 0 8 5 12 10 9 13
-8 13 -55 0 -55 -5 0 -8 -13 -7 -30 2 -35 13 -39 22 -9 6 17 9 19 16 8 6 -9 9
6 9 41 0 39 -3 51 -10 40 -9 -13 -10 -13 -11 0 -2 22 -2 23 6 48 8 27 -13 30
-35 4z"/>
<path d="M3020 3405 c0 -7 6 -18 14 -24 11 -10 14 -7 12 12 -1 24 -26 35 -26
12z"/>
<path d="M2895 3359 c-4 -6 -5 -12 -2 -15 2 -3 7 2 10 11 7 17 1 20 -8 4z"/>
<path d="M2960 3334 c0 -8 5 -12 10 -9 6 3 10 10 10 16 0 5 -4 9 -10 9 -5 0
-10 -7 -10 -16z"/>
<path d="M3525 3283 c3 -7 1 -13 -4 -13 -6 0 -11 -7 -11 -16 0 -8 5 -12 10 -9
6 3 10 -5 10 -19 0 -18 4 -24 15 -20 21 9 19 38 -6 65 -11 13 -18 18 -14 12z"/>
<path d="M2852 3198 c-18 -34 -20 -44 -9 -55 10 -10 20 -6 52 22 22 19 43 35
48 35 4 0 7 6 7 14 0 11 -40 26 -69 26 -3 0 -16 -19 -29 -42z"/>
<path d="M3661 3214 c0 -11 3 -14 6 -6 3 7 2 16 -1 19 -3 4 -6 -2 -5 -13z"/>
<path d="M3245 3171 c-16 -12 -45 -21 -62 -21 -21 0 -33 -5 -33 -13 0 -9 13
-13 43 -11 40 3 45 0 60 -29 10 -21 16 -26 16 -14 1 9 6 17 11 17 6 0 10 6 10
14 0 20 18 30 33 18 20 -16 95 -21 122 -9 31 14 31 51 0 53 -11 1 -54 5 -95 9
-66 5 -79 4 -105 -14z"/>
<path d="M3056 3171 c-12 -19 7 -41 33 -41 38 0 44 10 19 31 -23 21 -44 24
-52 10z"/>
<path d="M2825 3090 c-3 -5 1 -10 10 -10 9 0 13 5 10 10 -3 6 -8 10 -10 10 -2
0 -7 -4 -10 -10z"/>
<path d="M2811 3004 c0 -11 3 -14 6 -6 3 7 2 16 -1 19 -3 4 -6 -2 -5 -13z"/>
<path d="M2720 2933 c0 -22 2 -25 10 -13 13 20 13 40 0 40 -5 0 -10 -12 -10
-27z"/>
<path d="M5537 2943 c-4 -3 -7 -17 -7 -30 0 -33 37 -31 50 3 6 14 10 27 10 30
0 7 -46 5 -53 -3z"/>
<path d="M5285 2920 c-3 -5 -1 -10 4 -10 6 0 11 5 11 10 0 6 -2 10 -4 10 -3 0
-8 -4 -11 -10z"/>
<path d="M2780 2885 c0 -26 -1 -27 -13 -11 -12 16 -15 16 -26 3 -10 -13 -9
-17 6 -26 13 -8 14 -10 4 -11 -12 0 -12 -3 -3 -12 7 -7 12 -18 12 -26 0 -11
-3 -12 -14 -3 -12 10 -13 9 -9 -7 2 -11 0 -23 -6 -26 -6 -4 -11 -15 -11 -26 0
-14 5 -17 23 -12 20 5 21 4 8 -11 -8 -10 -15 -33 -17 -52 l-3 -35 42 3 c37 3
42 7 39 25 -2 12 2 22 8 22 6 0 9 -4 5 -9 -10 -17 15 -23 30 -8 10 10 12 23 6
43 -7 24 -10 26 -16 12 -4 -10 -12 -18 -18 -18 -7 0 -7 4 1 12 14 14 17 158 2
158 -5 0 -18 10 -30 22 l-20 22 0 -29z"/>
<path d="M3731 2894 c0 -11 3 -14 6 -6 3 7 2 16 -1 19 -3 4 -6 -2 -5 -13z"/>
<path d="M2685 2850 c-3 -5 -1 -10 4 -10 6 0 11 5 11 10 0 6 -2 10 -4 10 -3 0
-8 -4 -11 -10z"/>
<path d="M3667 2833 c-2 -10 -4 -34 -5 -53 0 -22 2 -26 5 -12 2 12 9 20 14 17
5 -4 7 7 6 24 -4 38 -14 49 -20 24z"/>
<path d="M3116 2813 c-6 -14 -5 -15 5 -6 7 7 10 15 7 18 -3 3 -9 -2 -12 -12z"/>
<path d="M5180 2754 c0 -9 7 -14 17 -12 25 5 28 28 4 28 -12 0 -21 -6 -21 -16z"/>
<path d="M3043 2730 c-11 -17 -8 -30 8 -30 9 0 19 39 10 44 -4 3 -12 -4 -18
-14z"/>
<path d="M4840 2735 c-10 -12 -10 -15 3 -15 19 0 31 16 18 24 -5 3 -14 -1 -21
-9z"/>
<path d="M5295 2700 c-3 -5 1 -10 9 -10 9 0 16 5 16 10 0 6 -4 10 -9 10 -6 0
-13 -4 -16 -10z"/>
<path d="M2700 2685 c0 -8 2 -15 4 -15 2 0 6 7 10 15 3 8 1 15 -4 15 -6 0 -10
-7 -10 -15z"/>
<path d="M5047 2684 c-8 -8 1 -24 14 -24 5 0 9 7 9 15 0 15 -12 20 -23 9z"/>
<path d="M2801 2542 c-13 -25 -14 -52 -2 -52 9 0 24 60 17 67 -2 3 -9 -4 -15
-15z"/>
<path d="M2840 2535 c-7 -9 -10 -18 -7 -21 3 -3 10 4 17 15 13 25 8 27 -10 6z"/>
<path d="M5293 2425 c-9 -25 2 -27 22 -5 17 18 17 20 1 20 -9 0 -19 -7 -23
-15z"/>
<path d="M4914 2416 c-4 -10 -2 -22 4 -28 8 -8 13 -7 18 6 4 10 2 22 -4 28 -8
8 -13 7 -18 -6z"/>
<path d="M2971 2354 c0 -11 3 -14 6 -6 3 7 2 16 -1 19 -3 4 -6 -2 -5 -13z"/>
<path d="M2986 2331 c-4 -7 -5 -15 -2 -18 9 -9 19 4 14 18 -4 11 -6 11 -12 0z"/>
<path d="M2900 2151 c0 -37 43 -37 53 0 6 21 -18 27 -26 7 -4 -10 -6 -10 -6 0
-2 20 -21 14 -21 -7z"/>
<path d="M5255 2137 c-21 -18 -25 -28 -20 -50 9 -34 15 -34 49 2 24 24 26 32
17 50 -14 26 -14 26 -46 -2z"/>
<path d="M5591 2104 c0 -11 3 -14 6 -6 3 7 2 16 -1 19 -3 4 -6 -2 -5 -13z"/>
<path d="M2995 2043 c-3 -10 -1 -19 5 -21 8 -3 7 -8 -1 -18 -12 -15 -2 -19 18
-6 12 8 6 62 -7 62 -4 0 -11 -8 -15 -17z"/>
<path d="M3015 1950 c-3 -5 -1 -10 4 -10 6 0 11 5 11 10 0 6 -2 10 -4 10 -3 0
-8 -4 -11 -10z"/>
<path d="M3132 1900 c0 -14 2 -19 5 -12 2 6 2 18 0 25 -3 6 -5 1 -5 -13z"/>
<path d="M3310 1910 c0 -5 5 -10 11 -10 5 0 7 5 4 10 -3 6 -8 10 -11 10 -2 0
-4 -4 -4 -10z"/>
<path d="M3351 1901 c-8 -5 -9 -11 -3 -15 5 -3 12 1 16 9 6 17 6 18 -13 6z"/>
<path d="M3170 1869 c0 -5 5 -7 10 -4 6 3 10 8 10 11 0 2 -4 4 -10 4 -5 0 -10
-5 -10 -11z"/>
<path d="M3288 1863 c7 -3 16 -2 19 1 4 3 -2 6 -13 5 -11 0 -14 -3 -6 -6z"/>
<path d="M5346 1861 c-4 -7 -5 -15 -2 -18 9 -9 19 4 14 18 -4 11 -6 11 -12 0z"/>
<path d="M5065 1760 c3 -5 13 -10 21 -10 8 0 14 5 14 10 0 6 -9 10 -21 10 -11
0 -17 -4 -14 -10z"/>
<path d="M5969 987 c-2 -24 -7 -53 -18 -101 -7 -27 -11 -70 -11 -95 3 -72 -10
-130 -46 -208 -18 -40 -30 -80 -28 -90 6 -22 -20 -76 -31 -65 -4 4 -5 -3 -2
-16 4 -18 2 -22 -8 -18 -11 4 -13 -2 -9 -22 4 -20 0 -33 -15 -46 -12 -11 -21
-27 -21 -37 0 -10 -7 -25 -17 -34 -10 -11 -16 -33 -16 -63 0 -26 -2 -41 -5
-33 -5 14 -57 -89 -68 -134 -6 -23 -4 -25 32 -25 27 0 35 3 25 9 -9 6 -11 16
-7 27 5 13 9 15 15 6 4 -7 12 2 20 26 8 20 20 45 28 54 9 10 13 23 10 31 -2 7
1 21 9 32 8 10 14 27 14 38 0 10 4 16 8 13 5 -3 6 8 4 25 -4 26 -1 29 22 29
14 0 26 -4 26 -10 0 -5 9 -10 20 -10 23 0 26 10 8 28 -10 10 -6 11 18 6 l30
-6 19 79 c10 43 19 83 19 88 1 6 6 19 12 30 18 30 35 156 39 288 4 98 2 124
-12 150 -16 31 -19 37 -22 55 -2 13 -41 12 -42 -1z m-121 -621 c-7 -8 -15 -12
-17 -11 -5 6 10 25 20 25 5 0 4 -6 -3 -14z m22 -40 c0 -2 -9 -6 -20 -9 -11 -3
-20 -1 -20 4 0 5 9 9 20 9 11 0 20 -2 20 -4z m-60 -46 c0 -5 -2 -10 -4 -10 -3
0 -8 5 -11 10 -3 6 -1 10 4 10 6 0 11 -4 11 -10z"/>
</g>
</svg>
